<svg xmlns="http://www.w3.org/2000/svg" width="224.68" height="172.607" viewBox="0 0 224.68 172.607">
  <g id="Group_66799" data-name="Group 66799" transform="translate(0.03 1.065)">
    <g id="Group_66800" data-name="Group 66800">
      <path id="Path_108666" data-name="Path 108666" d="M206.3,103.689a31.876,31.876,0,1,1-20.279-40.261A31.876,31.876,0,0,1,206.3,103.689Z" fill="none" stroke="#f39200" stroke-width="15"/>
      <line id="Line_2279" data-name="Line 2279" x2="13.047" y2="27.031" transform="translate(188.921 122.917)" fill="none" stroke="#f39200" stroke-linecap="round" stroke-width="15"/>
      <path id="Path_108667" data-name="Path 108667" d="M60.091,26.029,7.773,44.2A9.367,9.367,0,0,0,2.015,56.086L35.3,151.924a9.368,9.368,0,0,0,11.888,5.759l59.776-20.739a13.567,13.567,0,0,0,6.245-4.194" fill="none" stroke="#b9cbd9" stroke-linecap="round" stroke-width="3"/>
      <path id="Path_108668" data-name="Path 108668" d="M34.452,61.6a7.215,7.215,0,1,1-9.182-4.449A7.213,7.213,0,0,1,34.452,61.6Z" transform="translate(-2.109 -3.617)" fill="#c10a25"/>
      <line id="Line_2280" data-name="Line 2280" x1="34.476" y2="11.974" transform="translate(25.528 70.072)" fill="none" stroke="#b9cbd9" stroke-linecap="round" stroke-width="3"/>
      <path id="Path_108677" data-name="Path 108677" d="M29.908.628,0,10.971" transform="translate(30.191 84.501)" fill="none" stroke="#b9cbd9" stroke-linecap="round" stroke-width="3"/>
      <path id="Path_108678" data-name="Path 108678" d="M25.416.933,0,9.351" transform="translate(34.854 99.545)" fill="none" stroke="#b9cbd9" stroke-linecap="round" stroke-width="3"/>
      <path id="Path_108679" data-name="Path 108679" d="M20.23.416,0,7.337" transform="translate(39.516 114.985)" fill="none" stroke="#b9cbd9" stroke-linecap="round" stroke-width="3"/>
      <line id="Line_2284" data-name="Line 2284" x1="20.55" y2="7.137" transform="translate(44.178 128.611)" fill="none" stroke="#b9cbd9" stroke-linecap="round" stroke-width="3"/>
      <path id="Path_108669" data-name="Path 108669" d="M149.952,21.373,216.71,43.407a9.368,9.368,0,0,1,5.942,11.8l-6.328,19.17" fill="none" stroke="#b9cbd9" stroke-linecap="round" stroke-linejoin="round" stroke-width="3"/>
      <path id="Path_108670" data-name="Path 108670" d="M188.072,155.691a9.235,9.235,0,0,1-9.016,1.8L116.691,136.9" fill="none" stroke="#b9cbd9" stroke-linecap="round" stroke-linejoin="round" stroke-width="3"/>
      <path id="Path_108672" data-name="Path 108672" d="M146.716,126.483H76.551a9.367,9.367,0,0,1-9.34-9.34V47.148" fill="#fff" stroke="#b9cbd9" stroke-width="1"/>
      <path id="Path_108673" data-name="Path 108673" d="M146.716,126.483H76.551a9.367,9.367,0,0,1-9.34-9.34V47.148" fill="none" stroke="#b9cbd9" stroke-linecap="round" stroke-width="3"/>
      <path id="Path_108674" data-name="Path 108674" d="M67.211,29.234V15.689a9.367,9.367,0,0,1,9.339-9.34h70.3a9.368,9.368,0,0,1,9.341,9.34V50.95" fill="#fff" stroke="#b9cbd9" stroke-width="1"/>
      <path id="Path_108675" data-name="Path 108675" d="M67.211,29.234V15.689a9.367,9.367,0,0,1,9.339-9.34h70.3a9.368,9.368,0,0,1,9.341,9.34V50.95" fill="none" stroke="#b9cbd9" stroke-linecap="round" stroke-width="3"/>
      <line id="Line_2285" data-name="Line 2285" x2="52.986" transform="translate(85.748 62.139)" fill="none" stroke="#b9cbd9" stroke-linecap="round" stroke-width="3"/>
      <line id="Line_2286" data-name="Line 2286" x2="9.818" transform="translate(85.748 108.946)" fill="none" stroke="#b9cbd9" stroke-linecap="round" stroke-width="3"/>
      <line id="Line_2287" data-name="Line 2287" x2="9.818" transform="translate(100.398 108.946)" fill="none" stroke="#b9cbd9" stroke-linecap="round" stroke-width="3"/>
      <line id="Line_2288" data-name="Line 2288" x2="30.031" transform="translate(85.748 93.343)" fill="none" stroke="#b9cbd9" stroke-linecap="round" stroke-width="3"/>
      <line id="Line_2289" data-name="Line 2289" x2="14.65" transform="translate(85.748 77.741)" fill="none" stroke="#b9cbd9" stroke-linecap="round" stroke-width="3"/>
      <line id="Line_2290" data-name="Line 2290" x2="14.65" transform="translate(113.863 77.741)" fill="none" stroke="#b9cbd9" stroke-linecap="round" stroke-width="3"/>
      <line id="Line_2291" data-name="Line 2291" x2="14.21" y2="14.455" transform="translate(104.287 28.65)" fill="none" stroke="#1aa1ed" stroke-width="5"/>
      <line id="Line_2292" data-name="Line 2292" x1="14.21" y2="14.455" transform="translate(104.287 28.65)" fill="none" stroke="#1aa1ed" stroke-width="5"/>
      <path id="Path_108676" data-name="Path 108676" d="M181.337,77.614a16.936,16.936,0,0,1,10.775,21.392" fill="none" stroke="#b9cbd9" stroke-width="3"/>
      <line id="Line_2293" data-name="Line 2293" x2="7.913" y2="7.981" transform="translate(34.853 1.056)" fill="none" stroke="#b9cbd9" stroke-linecap="round" stroke-width="3"/>
      <line id="Line_2294" data-name="Line 2294" x1="12.834" y2="11.306" transform="translate(187.153 3.051)" fill="none" stroke="#b9cbd9" stroke-linecap="round" stroke-width="3"/>
      <line id="Line_2295" data-name="Line 2295" x1="10.411" y2="4.665" transform="translate(2.746 116.321)" fill="none" stroke="#b9cbd9" stroke-linecap="round" stroke-width="3"/>
      <line id="Line_2296" data-name="Line 2296" x1="7.582" y2="13.119" transform="translate(85.748 156.374)" fill="none" stroke="#b9cbd9" stroke-linecap="round" stroke-width="3"/>
      <line id="Line_2297" data-name="Line 2297" x2="0.953" y2="9.472" transform="translate(155.714 158.198)" fill="none" stroke="#b9cbd9" stroke-linecap="round" stroke-width="3"/>
    </g>
  </g>
</svg>
